<svg width="1743" height="251" viewBox="0 0 1743 251" fill="none" xmlns="http://www.w3.org/2000/svg">
<g filter="url(#filter0_b)">
<path d="M0.623047 124.558C0.623047 107.306 3.73332 91.6219 9.95385 75.9382C16.1744 60.2546 25.5052 47.7077 36.3911 36.7291C47.277 25.7506 61.2732 16.3404 76.8246 10.0669C92.3759 3.79347 109.482 0.656738 128.144 0.656738C148.361 0.656738 165.467 3.79347 181.018 10.0669C196.57 16.3404 210.566 24.1822 224.562 36.7291L185.684 83.7801C176.353 75.9382 168.577 71.2331 159.247 66.528C148.361 61.8229 137.475 60.2546 125.034 60.2546C114.148 60.2546 101.707 64.9597 92.3759 71.2331C75.2695 85.3484 67.4938 102.6 67.4938 124.558C67.4938 143.378 73.7143 160.63 86.1554 173.177C98.5964 185.724 114.148 191.997 132.809 191.997C148.361 191.997 160.802 188.86 170.133 181.019V151.22H123.479V102.6H232.338V210.818C202.79 235.911 168.577 246.89 129.699 246.89C104.817 246.89 83.0451 242.185 64.3835 231.206C44.1668 220.228 28.6154 206.112 17.7295 187.292C5.28845 170.04 0.623047 148.083 0.623047 124.558Z" fill="black" fill-opacity="0.22"/>
<path d="M266.551 140.241V5.36157H333.421V138.673C333.421 155.925 336.532 168.472 344.307 176.313C352.083 184.155 362.969 188.86 376.965 188.86C390.961 188.86 401.847 184.155 409.623 176.313C417.399 168.472 420.509 155.925 420.509 138.673V3.7932H487.38V138.673C487.38 157.493 484.269 174.745 479.604 188.86C474.939 202.976 467.163 213.954 457.832 223.364C448.501 232.774 436.06 239.048 423.619 243.753C409.623 248.458 394.072 250.027 378.52 250.027C344.307 250.027 316.315 240.616 297.653 223.364C275.882 204.544 266.551 176.313 266.551 140.241Z" fill="black" fill-opacity="0.22"/>
<path d="M492.045 245.322L593.129 3.7932H656.889L757.973 245.322H687.992L669.33 201.407H577.578L560.471 243.753H492.045V245.322ZM597.794 151.22H650.669L624.232 83.7799L597.794 151.22Z" fill="black" fill-opacity="0.22"/>
<path d="M711.319 5.36119H784.41L837.285 157.493L891.715 5.36119H964.806L868.388 246.889H806.182L711.319 5.36119Z" fill="black" fill-opacity="0.22"/>
<path d="M1061.22 5.36119H995.908V245.321H1061.22V5.36119Z" fill="black" fill-opacity="0.22"/>
<path d="M1092.33 63.3907V5.36119H1300.71V63.3907H1229.18V245.321H1162.31V63.3907H1092.33Z" fill="black" fill-opacity="0.22"/>
<path d="M1272.72 245.322L1373.81 3.7932H1437.57L1538.65 245.322H1468.67L1451.56 202.976H1359.81L1342.7 245.322H1272.72ZM1378.47 151.22H1431.35L1404.91 83.7799L1378.47 151.22Z" fill="black" fill-opacity="0.22"/>
<path d="M1561.98 245.321V5.36119H1627.29V185.723H1742.37V245.321H1561.98Z" fill="black" fill-opacity="0.22"/>
</g>
<defs>
<filter id="filter0_b" x="-54.377" y="-54.3433" width="1851.75" height="359.37" filterUnits="userSpaceOnUse" color-interpolation-filters="sRGB">
<feFlood flood-opacity="0" result="BackgroundImageFix"/>
<feGaussianBlur in="BackgroundImage" stdDeviation="27.5"/>
<feComposite in2="SourceAlpha" operator="in" result="effect1_backgroundBlur"/>
<feBlend mode="normal" in="SourceGraphic" in2="effect1_backgroundBlur" result="shape"/>
</filter>
</defs>
</svg>
