<svg width="27" height="25" viewBox="0 0 27 25" fill="none" xmlns="http://www.w3.org/2000/svg">
<mask id="path-1-inside-1" fill="white">
<path d="M26.4725 15.4622C26.1818 15.4622 25.9449 15.7001 25.9449 15.9928C25.9449 16.1346 25.9999 16.2481 26.099 16.3485C26.1987 16.4489 26.3311 16.4837 26.472 16.4837H26.4725C26.7631 16.4837 26.9994 16.2661 27 15.9733C27 15.6802 26.7637 15.4622 26.4725 15.4622Z"/>
<path d="M24.3631 15.4605L21.9663 15.4591L19.8353 11.7364L22.1079 7.77891C22.2022 7.61443 22.2024 7.41199 22.1083 7.24772L19.8432 3.29168L21.4025 0.815761C21.5585 0.5679 21.4855 0.239768 21.2394 0.0827547C20.9934 -0.0744664 20.6675 -0.00104123 20.5114 0.24682L18.9384 2.7356L14.3619 2.72689H14.3617C14.1732 2.72689 13.9991 2.8335 13.905 2.99757L11.6308 6.95008L7.41165 6.93971L6.31329 4.91388C6.22101 4.74297 6.04324 4.63781 5.8496 4.63781C5.76205 4.63781 5.67492 4.66042 5.59747 4.70294C5.47387 4.77097 5.38385 4.88318 5.34409 5.01966C5.30413 5.15572 5.31937 5.29905 5.38694 5.42391L6.48921 7.4543L4.32422 11.2253H0.52755C0.236069 11.2253 0 11.4632 0 11.7565C0 12.0498 0.236069 12.2877 0.52755 12.2877H4.36583L6.46655 15.9615L5.17538 17.8357C5.09525 17.9518 5.06456 18.0941 5.08949 18.2333C5.11482 18.3731 5.19228 18.495 5.30784 18.5757C5.39642 18.6379 5.50024 18.6711 5.60797 18.6711C5.78101 18.6711 5.94353 18.5863 6.042 18.4434L7.38055 16.5028L11.629 16.5057L13.7538 20.217L12.4496 22.3347C12.2968 22.5838 12.3732 22.9119 12.6202 23.0661C12.704 23.1181 12.8 23.1457 12.8977 23.1457C13.0816 23.1457 13.2499 23.0517 13.3465 22.8945L14.6709 20.7428L18.876 20.7503L21.157 24.7341C21.2548 24.9048 21.432 25 21.6145 25C21.7039 25 21.7945 24.9772 21.8776 24.9291C22.1299 24.7824 22.2166 24.4576 22.071 24.2035L19.8069 20.2494L21.9464 16.5215L24.3625 16.5229C24.6531 16.5229 24.8894 16.285 24.89 15.9924C24.89 15.8505 24.8352 15.7171 24.7355 15.6167C24.6362 15.5163 24.5038 15.4612 24.3631 15.4605ZM14.6657 3.80047L18.9183 3.80317L21.0423 7.51259L18.9253 11.1992L14.6727 11.1965L12.5489 7.48687L14.6657 3.80047ZM11.6182 15.444L7.38364 15.4413L5.25964 11.7316L7.38837 8.0249L11.6168 8.0276L13.7439 11.7422L11.6182 15.444ZM18.9135 19.6777L14.6612 19.675L12.5462 15.9812L14.6721 12.279L18.93 12.2817L21.0423 15.9708L18.9135 19.6777Z"/>
<path d="M4.83982 3.84237H4.84044C4.92799 3.84237 5.01512 3.81623 5.09196 3.77371C5.21597 3.70568 5.30578 3.59202 5.34574 3.45595C5.38529 3.31947 5.37005 3.17532 5.30248 3.05108C5.2102 2.87996 5.03242 2.77335 4.83941 2.77335C4.75186 2.77335 4.66431 2.79554 4.58727 2.83848C4.46326 2.9061 4.37304 3.01851 4.33349 3.15437C4.29394 3.29085 4.30918 3.43749 4.37675 3.56174C4.46903 3.73285 4.6468 3.84237 4.83982 3.84237Z"/>
<path d="M4.70592 19.4489C4.61735 19.3867 4.51332 19.3539 4.40517 19.3539C4.23214 19.3539 4.07023 19.4394 3.97156 19.5823C3.80594 19.8229 3.86506 20.1544 4.10401 20.3217C4.19259 20.3838 4.29662 20.4167 4.40476 20.4167C4.5778 20.4167 4.73971 20.3313 4.83838 20.1884C5.004 19.9478 4.94488 19.6163 4.70592 19.4489Z"/>
<path d="M12.0646 23.9689C11.9808 23.9169 11.8848 23.8893 11.7872 23.8893C11.603 23.8893 11.4353 23.9835 11.3383 24.1405C11.2639 24.2612 11.2407 24.4039 11.2728 24.5422C11.3051 24.6802 11.389 24.7976 11.5087 24.872C11.5925 24.9239 11.6881 24.9517 11.7861 24.9517C11.9703 24.9517 12.138 24.8575 12.235 24.7005C12.3094 24.5798 12.3326 24.4375 12.3005 24.2994C12.2677 24.1612 12.1843 24.044 12.0646 23.9689Z"/>
<path d="M8.52937 3.83324C8.59612 3.87224 8.67357 3.89173 8.76853 3.89173C8.85999 3.89173 8.94527 3.87224 9.01366 3.83324C9.08226 3.79425 9.1216 3.74115 9.1216 3.67395V2.1426H10.2822V3.67395C10.2822 3.74115 10.3223 3.79425 10.3893 3.83324C10.456 3.87224 10.5403 3.89173 10.6352 3.89173C10.7267 3.89173 10.8017 3.87224 10.8703 3.83324C10.9389 3.79425 10.9679 3.74115 10.9679 3.67395V0.219649C10.9679 0.14892 10.9414 0.0956144 10.8746 0.0601464C10.8077 0.0248857 10.7302 0.00704798 10.6352 0.00704798C10.5403 0.00704798 10.4542 0.0248857 10.3876 0.0601464C10.3207 0.0956144 10.2822 0.14892 10.2822 0.219649V1.61141H9.12181V0.219649C9.12181 0.14892 9.08144 0.0956144 9.01469 0.0601464C8.94795 0.0248857 8.86349 0.00704798 8.76853 0.00704798C8.67357 0.00704798 8.59776 0.0248857 8.53102 0.0601464C8.46407 0.0956144 8.43606 0.14892 8.43606 0.219649V3.67374C8.43585 3.74115 8.46243 3.79425 8.52937 3.83324Z"/>
<path d="M25.2264 9.46624C25.1594 9.43077 25.0836 9.41293 24.9887 9.41293C24.8937 9.41293 24.8051 9.43077 24.7384 9.46624C24.6714 9.5015 24.6305 9.5548 24.6305 9.62553V11.0127H23.4699V9.62553C23.4699 9.5548 23.4332 9.5015 23.3665 9.46624C23.2995 9.43077 23.2169 9.41293 23.122 9.41293C23.027 9.41293 22.9487 9.43077 22.8818 9.46624C22.815 9.5015 22.7841 9.5548 22.7841 9.62553V13.0796C22.7841 13.147 22.8142 13.2001 22.881 13.2391C22.9479 13.2781 23.027 13.2976 23.1222 13.2976C23.2134 13.2976 23.296 13.2781 23.3646 13.2391C23.4332 13.2001 23.4699 13.147 23.4699 13.0796V11.5439H24.6305V13.0798C24.6305 13.147 24.6741 13.2001 24.7409 13.2391C24.8078 13.2781 24.8937 13.2976 24.9889 13.2976C25.0801 13.2976 25.1526 13.2781 25.221 13.2391C25.2896 13.2001 25.3162 13.147 25.3162 13.0798V9.62553C25.3162 9.5548 25.2931 9.5015 25.2264 9.46624Z"/>
<path d="M2.44185 14.4295C2.53681 14.4295 2.61571 14.4428 2.68616 14.4693C2.75661 14.4959 2.80749 14.5278 2.84271 14.5649C2.87794 14.6023 2.90595 14.6483 2.92902 14.7033C2.95168 14.7582 2.96548 14.8024 2.97063 14.836C2.97599 14.8698 2.98011 14.9096 2.98361 14.9557C2.98711 15.1009 3.10144 15.1735 3.32659 15.1735C3.44978 15.1735 3.53773 15.1496 3.59047 15.1017C3.6432 15.0538 3.66957 14.9644 3.66957 14.8333C3.66957 14.5288 3.55257 14.2843 3.31856 14.1001C3.08455 13.9159 2.78297 13.8236 2.41342 13.8236C2.05108 13.8236 1.76454 13.9221 1.53939 14.1186C1.31424 14.3152 1.20898 14.6226 1.20898 15.0405V16.5233C1.20898 16.9413 1.31342 17.2487 1.53692 17.4453C1.76022 17.6417 2.04943 17.7402 2.41198 17.7402C2.78483 17.7402 3.0864 17.6444 3.32041 17.4532C3.55442 17.2619 3.6706 17.0068 3.6706 16.688C3.6706 16.5569 3.64279 16.4675 3.5882 16.4196C3.53362 16.3719 3.44463 16.3479 3.32144 16.3479C3.1068 16.3479 2.99412 16.4205 2.98361 16.5657C2.98011 16.6401 2.97208 16.7032 2.95992 16.7544C2.94756 16.8058 2.92449 16.8643 2.89112 16.9299C2.85775 16.9954 2.80316 17.0458 2.72756 17.0813C2.65196 17.1168 2.56503 17.1344 2.45235 17.1344C2.0758 17.1344 1.89494 16.9307 1.89494 16.5233V15.0407C1.89473 14.6334 2.0723 14.4295 2.44185 14.4295Z"/>
</mask>
<path d="M26.4725 15.4622C26.1818 15.4622 25.9449 15.7001 25.9449 15.9928C25.9449 16.1346 25.9999 16.2481 26.099 16.3485C26.1987 16.4489 26.3311 16.4837 26.472 16.4837H26.4725C26.7631 16.4837 26.9994 16.2661 27 15.9733C27 15.6802 26.7637 15.4622 26.4725 15.4622Z" fill="white"/>
<path d="M24.3631 15.4605L21.9663 15.4591L19.8353 11.7364L22.1079 7.77891C22.2022 7.61443 22.2024 7.41199 22.1083 7.24772L19.8432 3.29168L21.4025 0.815761C21.5585 0.5679 21.4855 0.239768 21.2394 0.0827547C20.9934 -0.0744664 20.6675 -0.00104123 20.5114 0.24682L18.9384 2.7356L14.3619 2.72689H14.3617C14.1732 2.72689 13.9991 2.8335 13.905 2.99757L11.6308 6.95008L7.41165 6.93971L6.31329 4.91388C6.22101 4.74297 6.04324 4.63781 5.8496 4.63781C5.76205 4.63781 5.67492 4.66042 5.59747 4.70294C5.47387 4.77097 5.38385 4.88318 5.34409 5.01966C5.30413 5.15572 5.31937 5.29905 5.38694 5.42391L6.48921 7.4543L4.32422 11.2253H0.52755C0.236069 11.2253 0 11.4632 0 11.7565C0 12.0498 0.236069 12.2877 0.52755 12.2877H4.36583L6.46655 15.9615L5.17538 17.8357C5.09525 17.9518 5.06456 18.0941 5.08949 18.2333C5.11482 18.3731 5.19228 18.495 5.30784 18.5757C5.39642 18.6379 5.50024 18.6711 5.60797 18.6711C5.78101 18.6711 5.94353 18.5863 6.042 18.4434L7.38055 16.5028L11.629 16.5057L13.7538 20.217L12.4496 22.3347C12.2968 22.5838 12.3732 22.9119 12.6202 23.0661C12.704 23.1181 12.8 23.1457 12.8977 23.1457C13.0816 23.1457 13.2499 23.0517 13.3465 22.8945L14.6709 20.7428L18.876 20.7503L21.157 24.7341C21.2548 24.9048 21.432 25 21.6145 25C21.7039 25 21.7945 24.9772 21.8776 24.9291C22.1299 24.7824 22.2166 24.4576 22.071 24.2035L19.8069 20.2494L21.9464 16.5215L24.3625 16.5229C24.6531 16.5229 24.8894 16.285 24.89 15.9924C24.89 15.8505 24.8352 15.7171 24.7355 15.6167C24.6362 15.5163 24.5038 15.4612 24.3631 15.4605ZM14.6657 3.80047L18.9183 3.80317L21.0423 7.51259L18.9253 11.1992L14.6727 11.1965L12.5489 7.48687L14.6657 3.80047ZM11.6182 15.444L7.38364 15.4413L5.25964 11.7316L7.38837 8.0249L11.6168 8.0276L13.7439 11.7422L11.6182 15.444ZM18.9135 19.6777L14.6612 19.675L12.5462 15.9812L14.6721 12.279L18.93 12.2817L21.0423 15.9708L18.9135 19.6777Z" fill="white"/>
<path d="M4.83982 3.84237H4.84044C4.92799 3.84237 5.01512 3.81623 5.09196 3.77371C5.21597 3.70568 5.30578 3.59202 5.34574 3.45595C5.38529 3.31947 5.37005 3.17532 5.30248 3.05108C5.2102 2.87996 5.03242 2.77335 4.83941 2.77335C4.75186 2.77335 4.66431 2.79554 4.58727 2.83848C4.46326 2.9061 4.37304 3.01851 4.33349 3.15437C4.29394 3.29085 4.30918 3.43749 4.37675 3.56174C4.46903 3.73285 4.6468 3.84237 4.83982 3.84237Z" fill="white"/>
<path d="M4.70592 19.4489C4.61735 19.3867 4.51332 19.3539 4.40517 19.3539C4.23214 19.3539 4.07023 19.4394 3.97156 19.5823C3.80594 19.8229 3.86506 20.1544 4.10401 20.3217C4.19259 20.3838 4.29662 20.4167 4.40476 20.4167C4.5778 20.4167 4.73971 20.3313 4.83838 20.1884C5.004 19.9478 4.94488 19.6163 4.70592 19.4489Z" fill="white"/>
<path d="M12.0646 23.9689C11.9808 23.9169 11.8848 23.8893 11.7872 23.8893C11.603 23.8893 11.4353 23.9835 11.3383 24.1405C11.2639 24.2612 11.2407 24.4039 11.2728 24.5422C11.3051 24.6802 11.389 24.7976 11.5087 24.872C11.5925 24.9239 11.6881 24.9517 11.7861 24.9517C11.9703 24.9517 12.138 24.8575 12.235 24.7005C12.3094 24.5798 12.3326 24.4375 12.3005 24.2994C12.2677 24.1612 12.1843 24.044 12.0646 23.9689Z" fill="white"/>
<path d="M8.52937 3.83324C8.59612 3.87224 8.67357 3.89173 8.76853 3.89173C8.85999 3.89173 8.94527 3.87224 9.01366 3.83324C9.08226 3.79425 9.1216 3.74115 9.1216 3.67395V2.1426H10.2822V3.67395C10.2822 3.74115 10.3223 3.79425 10.3893 3.83324C10.456 3.87224 10.5403 3.89173 10.6352 3.89173C10.7267 3.89173 10.8017 3.87224 10.8703 3.83324C10.9389 3.79425 10.9679 3.74115 10.9679 3.67395V0.219649C10.9679 0.14892 10.9414 0.0956144 10.8746 0.0601464C10.8077 0.0248857 10.7302 0.00704798 10.6352 0.00704798C10.5403 0.00704798 10.4542 0.0248857 10.3876 0.0601464C10.3207 0.0956144 10.2822 0.14892 10.2822 0.219649V1.61141H9.12181V0.219649C9.12181 0.14892 9.08144 0.0956144 9.01469 0.0601464C8.94795 0.0248857 8.86349 0.00704798 8.76853 0.00704798C8.67357 0.00704798 8.59776 0.0248857 8.53102 0.0601464C8.46407 0.0956144 8.43606 0.14892 8.43606 0.219649V3.67374C8.43585 3.74115 8.46243 3.79425 8.52937 3.83324Z" fill="white"/>
<path d="M25.2264 9.46624C25.1594 9.43077 25.0836 9.41293 24.9887 9.41293C24.8937 9.41293 24.8051 9.43077 24.7384 9.46624C24.6714 9.5015 24.6305 9.5548 24.6305 9.62553V11.0127H23.4699V9.62553C23.4699 9.5548 23.4332 9.5015 23.3665 9.46624C23.2995 9.43077 23.2169 9.41293 23.122 9.41293C23.027 9.41293 22.9487 9.43077 22.8818 9.46624C22.815 9.5015 22.7841 9.5548 22.7841 9.62553V13.0796C22.7841 13.147 22.8142 13.2001 22.881 13.2391C22.9479 13.2781 23.027 13.2976 23.1222 13.2976C23.2134 13.2976 23.296 13.2781 23.3646 13.2391C23.4332 13.2001 23.4699 13.147 23.4699 13.0796V11.5439H24.6305V13.0798C24.6305 13.147 24.6741 13.2001 24.7409 13.2391C24.8078 13.2781 24.8937 13.2976 24.9889 13.2976C25.0801 13.2976 25.1526 13.2781 25.221 13.2391C25.2896 13.2001 25.3162 13.147 25.3162 13.0798V9.62553C25.3162 9.5548 25.2931 9.5015 25.2264 9.46624Z" fill="white"/>
<path d="M2.44185 14.4295C2.53681 14.4295 2.61571 14.4428 2.68616 14.4693C2.75661 14.4959 2.80749 14.5278 2.84271 14.5649C2.87794 14.6023 2.90595 14.6483 2.92902 14.7033C2.95168 14.7582 2.96548 14.8024 2.97063 14.836C2.97599 14.8698 2.98011 14.9096 2.98361 14.9557C2.98711 15.1009 3.10144 15.1735 3.32659 15.1735C3.44978 15.1735 3.53773 15.1496 3.59047 15.1017C3.6432 15.0538 3.66957 14.9644 3.66957 14.8333C3.66957 14.5288 3.55257 14.2843 3.31856 14.1001C3.08455 13.9159 2.78297 13.8236 2.41342 13.8236C2.05108 13.8236 1.76454 13.9221 1.53939 14.1186C1.31424 14.3152 1.20898 14.6226 1.20898 15.0405V16.5233C1.20898 16.9413 1.31342 17.2487 1.53692 17.4453C1.76022 17.6417 2.04943 17.7402 2.41198 17.7402C2.78483 17.7402 3.0864 17.6444 3.32041 17.4532C3.55442 17.2619 3.6706 17.0068 3.6706 16.688C3.6706 16.5569 3.64279 16.4675 3.5882 16.4196C3.53362 16.3719 3.44463 16.3479 3.32144 16.3479C3.1068 16.3479 2.99412 16.4205 2.98361 16.5657C2.98011 16.6401 2.97208 16.7032 2.95992 16.7544C2.94756 16.8058 2.92449 16.8643 2.89112 16.9299C2.85775 16.9954 2.80316 17.0458 2.72756 17.0813C2.65196 17.1168 2.56503 17.1344 2.45235 17.1344C2.0758 17.1344 1.89494 16.9307 1.89494 16.5233V15.0407C1.89473 14.6334 2.0723 14.4295 2.44185 14.4295Z" fill="white"/>
<path d="M26.4725 15.4622C26.1818 15.4622 25.9449 15.7001 25.9449 15.9928C25.9449 16.1346 25.9999 16.2481 26.099 16.3485C26.1987 16.4489 26.3311 16.4837 26.472 16.4837H26.4725C26.7631 16.4837 26.9994 16.2661 27 15.9733C27 15.6802 26.7637 15.4622 26.4725 15.4622Z" stroke="#292929" stroke-width="0.4" mask="url(#path-1-inside-1)"/>
<path d="M24.3631 15.4605L21.9663 15.4591L19.8353 11.7364L22.1079 7.77891C22.2022 7.61443 22.2024 7.41199 22.1083 7.24772L19.8432 3.29168L21.4025 0.815761C21.5585 0.5679 21.4855 0.239768 21.2394 0.0827547C20.9934 -0.0744664 20.6675 -0.00104123 20.5114 0.24682L18.9384 2.7356L14.3619 2.72689H14.3617C14.1732 2.72689 13.9991 2.8335 13.905 2.99757L11.6308 6.95008L7.41165 6.93971L6.31329 4.91388C6.22101 4.74297 6.04324 4.63781 5.8496 4.63781C5.76205 4.63781 5.67492 4.66042 5.59747 4.70294C5.47387 4.77097 5.38385 4.88318 5.34409 5.01966C5.30413 5.15572 5.31937 5.29905 5.38694 5.42391L6.48921 7.4543L4.32422 11.2253H0.52755C0.236069 11.2253 0 11.4632 0 11.7565C0 12.0498 0.236069 12.2877 0.52755 12.2877H4.36583L6.46655 15.9615L5.17538 17.8357C5.09525 17.9518 5.06456 18.0941 5.08949 18.2333C5.11482 18.3731 5.19228 18.495 5.30784 18.5757C5.39642 18.6379 5.50024 18.6711 5.60797 18.6711C5.78101 18.6711 5.94353 18.5863 6.042 18.4434L7.38055 16.5028L11.629 16.5057L13.7538 20.217L12.4496 22.3347C12.2968 22.5838 12.3732 22.9119 12.6202 23.0661C12.704 23.1181 12.8 23.1457 12.8977 23.1457C13.0816 23.1457 13.2499 23.0517 13.3465 22.8945L14.6709 20.7428L18.876 20.7503L21.157 24.7341C21.2548 24.9048 21.432 25 21.6145 25C21.7039 25 21.7945 24.9772 21.8776 24.9291C22.1299 24.7824 22.2166 24.4576 22.071 24.2035L19.8069 20.2494L21.9464 16.5215L24.3625 16.5229C24.6531 16.5229 24.8894 16.285 24.89 15.9924C24.89 15.8505 24.8352 15.7171 24.7355 15.6167C24.6362 15.5163 24.5038 15.4612 24.3631 15.4605ZM14.6657 3.80047L18.9183 3.80317L21.0423 7.51259L18.9253 11.1992L14.6727 11.1965L12.5489 7.48687L14.6657 3.80047ZM11.6182 15.444L7.38364 15.4413L5.25964 11.7316L7.38837 8.0249L11.6168 8.0276L13.7439 11.7422L11.6182 15.444ZM18.9135 19.6777L14.6612 19.675L12.5462 15.9812L14.6721 12.279L18.93 12.2817L21.0423 15.9708L18.9135 19.6777Z" stroke="#292929" stroke-width="0.4" mask="url(#path-1-inside-1)"/>
<path d="M4.83982 3.84237H4.84044C4.92799 3.84237 5.01512 3.81623 5.09196 3.77371C5.21597 3.70568 5.30578 3.59202 5.34574 3.45595C5.38529 3.31947 5.37005 3.17532 5.30248 3.05108C5.2102 2.87996 5.03242 2.77335 4.83941 2.77335C4.75186 2.77335 4.66431 2.79554 4.58727 2.83848C4.46326 2.9061 4.37304 3.01851 4.33349 3.15437C4.29394 3.29085 4.30918 3.43749 4.37675 3.56174C4.46903 3.73285 4.6468 3.84237 4.83982 3.84237Z" stroke="#292929" stroke-width="0.4" mask="url(#path-1-inside-1)"/>
<path d="M4.70592 19.4489C4.61735 19.3867 4.51332 19.3539 4.40517 19.3539C4.23214 19.3539 4.07023 19.4394 3.97156 19.5823C3.80594 19.8229 3.86506 20.1544 4.10401 20.3217C4.19259 20.3838 4.29662 20.4167 4.40476 20.4167C4.5778 20.4167 4.73971 20.3313 4.83838 20.1884C5.004 19.9478 4.94488 19.6163 4.70592 19.4489Z" stroke="#292929" stroke-width="0.4" mask="url(#path-1-inside-1)"/>
<path d="M12.0646 23.9689C11.9808 23.9169 11.8848 23.8893 11.7872 23.8893C11.603 23.8893 11.4353 23.9835 11.3383 24.1405C11.2639 24.2612 11.2407 24.4039 11.2728 24.5422C11.3051 24.6802 11.389 24.7976 11.5087 24.872C11.5925 24.9239 11.6881 24.9517 11.7861 24.9517C11.9703 24.9517 12.138 24.8575 12.235 24.7005C12.3094 24.5798 12.3326 24.4375 12.3005 24.2994C12.2677 24.1612 12.1843 24.044 12.0646 23.9689Z" stroke="#292929" stroke-width="0.4" mask="url(#path-1-inside-1)"/>
<path d="M8.52937 3.83324C8.59612 3.87224 8.67357 3.89173 8.76853 3.89173C8.85999 3.89173 8.94527 3.87224 9.01366 3.83324C9.08226 3.79425 9.1216 3.74115 9.1216 3.67395V2.1426H10.2822V3.67395C10.2822 3.74115 10.3223 3.79425 10.3893 3.83324C10.456 3.87224 10.5403 3.89173 10.6352 3.89173C10.7267 3.89173 10.8017 3.87224 10.8703 3.83324C10.9389 3.79425 10.9679 3.74115 10.9679 3.67395V0.219649C10.9679 0.14892 10.9414 0.0956144 10.8746 0.0601464C10.8077 0.0248857 10.7302 0.00704798 10.6352 0.00704798C10.5403 0.00704798 10.4542 0.0248857 10.3876 0.0601464C10.3207 0.0956144 10.2822 0.14892 10.2822 0.219649V1.61141H9.12181V0.219649C9.12181 0.14892 9.08144 0.0956144 9.01469 0.0601464C8.94795 0.0248857 8.86349 0.00704798 8.76853 0.00704798C8.67357 0.00704798 8.59776 0.0248857 8.53102 0.0601464C8.46407 0.0956144 8.43606 0.14892 8.43606 0.219649V3.67374C8.43585 3.74115 8.46243 3.79425 8.52937 3.83324Z" stroke="#292929" stroke-width="0.4" mask="url(#path-1-inside-1)"/>
<path d="M25.2264 9.46624C25.1594 9.43077 25.0836 9.41293 24.9887 9.41293C24.8937 9.41293 24.8051 9.43077 24.7384 9.46624C24.6714 9.5015 24.6305 9.5548 24.6305 9.62553V11.0127H23.4699V9.62553C23.4699 9.5548 23.4332 9.5015 23.3665 9.46624C23.2995 9.43077 23.2169 9.41293 23.122 9.41293C23.027 9.41293 22.9487 9.43077 22.8818 9.46624C22.815 9.5015 22.7841 9.5548 22.7841 9.62553V13.0796C22.7841 13.147 22.8142 13.2001 22.881 13.2391C22.9479 13.2781 23.027 13.2976 23.1222 13.2976C23.2134 13.2976 23.296 13.2781 23.3646 13.2391C23.4332 13.2001 23.4699 13.147 23.4699 13.0796V11.5439H24.6305V13.0798C24.6305 13.147 24.6741 13.2001 24.7409 13.2391C24.8078 13.2781 24.8937 13.2976 24.9889 13.2976C25.0801 13.2976 25.1526 13.2781 25.221 13.2391C25.2896 13.2001 25.3162 13.147 25.3162 13.0798V9.62553C25.3162 9.5548 25.2931 9.5015 25.2264 9.46624Z" stroke="#292929" stroke-width="0.4" mask="url(#path-1-inside-1)"/>
<path d="M2.44185 14.4295C2.53681 14.4295 2.61571 14.4428 2.68616 14.4693C2.75661 14.4959 2.80749 14.5278 2.84271 14.5649C2.87794 14.6023 2.90595 14.6483 2.92902 14.7033C2.95168 14.7582 2.96548 14.8024 2.97063 14.836C2.97599 14.8698 2.98011 14.9096 2.98361 14.9557C2.98711 15.1009 3.10144 15.1735 3.32659 15.1735C3.44978 15.1735 3.53773 15.1496 3.59047 15.1017C3.6432 15.0538 3.66957 14.9644 3.66957 14.8333C3.66957 14.5288 3.55257 14.2843 3.31856 14.1001C3.08455 13.9159 2.78297 13.8236 2.41342 13.8236C2.05108 13.8236 1.76454 13.9221 1.53939 14.1186C1.31424 14.3152 1.20898 14.6226 1.20898 15.0405V16.5233C1.20898 16.9413 1.31342 17.2487 1.53692 17.4453C1.76022 17.6417 2.04943 17.7402 2.41198 17.7402C2.78483 17.7402 3.0864 17.6444 3.32041 17.4532C3.55442 17.2619 3.6706 17.0068 3.6706 16.688C3.6706 16.5569 3.64279 16.4675 3.5882 16.4196C3.53362 16.3719 3.44463 16.3479 3.32144 16.3479C3.1068 16.3479 2.99412 16.4205 2.98361 16.5657C2.98011 16.6401 2.97208 16.7032 2.95992 16.7544C2.94756 16.8058 2.92449 16.8643 2.89112 16.9299C2.85775 16.9954 2.80316 17.0458 2.72756 17.0813C2.65196 17.1168 2.56503 17.1344 2.45235 17.1344C2.0758 17.1344 1.89494 16.9307 1.89494 16.5233V15.0407C1.89473 14.6334 2.0723 14.4295 2.44185 14.4295Z" stroke="#292929" stroke-width="0.4" mask="url(#path-1-inside-1)"/>
</svg>
