<svg width="11" height="16" viewBox="0 0 11 16" fill="none" xmlns="http://www.w3.org/2000/svg">
<path d="M10.4388 12.4244L10.1092 11.8672C9.51629 10.8777 8.69807 9.7421 7.62483 9.7421C7.426 9.7421 7.22909 9.78259 7.03417 9.86457L6.45813 10.1146C6.40552 10.1367 6.3544 10.1618 6.30029 10.1884C6.15285 10.261 5.98567 10.3432 5.81372 10.3432C5.38952 10.3432 4.89803 9.78446 4.43 8.76991C3.97066 7.77413 3.99996 7.2521 4.1054 6.98942C4.22175 6.69961 4.49231 6.5757 4.78297 6.46436C4.82339 6.44884 4.85989 6.43477 4.8954 6.41997L5.47871 6.17137C6.99838 5.5281 6.43303 3.28013 6.24767 2.54312L6.09047 1.90945C5.95609 1.3872 5.59977 0 4.41788 0C4.19908 0 3.96567 0.0515971 3.72434 0.15342C3.566 0.217069 1.38702 1.11738 0.597594 2.69907C-0.345891 4.58175 -0.171439 7.1064 1.11561 10.2013C2.39303 13.3001 4.04951 15.1954 6.03907 15.8347C6.38035 15.9444 6.76604 16 7.18553 16H7.18574C8.55877 16 9.91411 15.4087 10.0241 15.3596C10.4975 15.1566 10.8035 14.8481 10.9335 14.4426C11.154 13.755 10.7842 13.0016 10.4388 12.4244ZM9.91625 14.1085C9.88602 14.2028 9.78093 14.2888 9.60413 14.3641C9.6012 14.3654 9.59764 14.3669 9.59465 14.3683C9.58238 14.3738 8.35558 14.9177 7.18546 14.9176C6.8759 14.9176 6.59907 14.8791 6.36267 14.803C4.68651 14.2645 3.25324 12.576 2.1018 9.78295C0.941795 6.99332 0.756434 4.77471 1.55163 3.18798C2.1691 1.95087 4.10219 1.16609 4.12116 1.15859C4.12501 1.157 4.12879 1.15549 4.13257 1.1539C4.24264 1.10714 4.34131 1.08246 4.41788 1.08246C4.6535 1.08246 4.86795 1.45237 5.05431 2.1774L5.21079 2.8084C5.54844 4.15064 5.49703 4.99019 5.06479 5.1732L4.48425 5.42072C4.46115 5.43039 4.43413 5.44057 4.40433 5.45204C4.08366 5.57494 3.41636 5.83054 3.11458 6.58191C2.84074 7.26371 2.9541 8.12924 3.46078 9.22801C4.14319 10.7069 4.91279 11.4258 5.81357 11.4258C6.23163 11.4258 6.56721 11.2606 6.76768 11.1621C6.80461 11.1439 6.83762 11.1272 6.87312 11.1124L7.45002 10.8619C7.50955 10.8368 7.56673 10.8246 7.62476 10.8246C7.90244 10.8246 8.40035 11.103 9.19327 12.426L9.52271 12.9828C9.92872 13.6614 9.9608 13.9695 9.91625 14.1085Z" fill="white"/>
</svg>
