<svg width="13" height="14" viewBox="0 0 13 14" fill="none" xmlns="http://www.w3.org/2000/svg">
<path d="M6.50001 7.88564C2.30844 7.88564 0 9.87561 0 13.4891C0 13.7713 0.22792 14 0.509135 14H12.4909C12.7721 14 13 13.7713 13 13.4891C13 9.8758 10.6916 7.88564 6.50001 7.88564ZM1.0368 12.9781C1.23706 10.2764 3.07249 8.90755 6.50001 8.90755C9.92753 8.90755 11.763 10.2764 11.9634 12.9781H1.0368Z" fill="white"/>
<path d="M6.50001 0C4.57461 0 3.12274 1.48635 3.12274 3.45726C3.12274 5.48589 4.63777 7.13609 6.50001 7.13609C8.36226 7.13609 9.87729 5.48589 9.87729 3.45743C9.87729 1.48635 8.42541 0 6.50001 0ZM6.50001 6.11436C5.19917 6.11436 4.14101 4.92248 4.14101 3.45743C4.14101 2.04619 5.13315 1.02189 6.50001 1.02189C7.845 1.02189 8.85902 2.06883 8.85902 3.45743C8.85902 4.92248 7.80086 6.11436 6.50001 6.11436Z" fill="white"/>
</svg>
