<svg width="32" height="29" viewBox="0 0 32 29" fill="none" xmlns="http://www.w3.org/2000/svg">
<mask id="path-1-inside-1" fill="white">
<path d="M1.875 29H16.875C17.5095 29 18.1846 28.7913 18.7451 28.3648C19.2826 28.7732 19.9412 29 20.625 29H28.875C30.5981 29 32 27.5859 32 25.8478C32 24.1097 30.5981 22.6957 28.875 22.6957H24.4074C25.5965 21.4643 25.5874 19.4872 24.3788 18.268C23.1604 17.0391 21.1778 17.0391 19.9593 18.268L18.75 19.4877V10.7174C18.75 8.97928 17.3481 7.56522 15.625 7.56522H15V6.30435H16.875C17.2202 6.30435 17.5 6.0221 17.5 5.67391V1.8913C17.5 0.848439 16.6589 0 15.625 0H3.125C2.09113 0 1.25 0.848439 1.25 1.8913V5.67391C1.25 6.0221 1.52981 6.30435 1.875 6.30435H3.75V7.56522H3.125C1.40188 7.56522 0 8.97928 0 10.7174V27.1087C0 28.1516 0.841125 29 1.875 29ZM1.25 27.1087V25.2168H13.803C13.6276 26.0909 13.8264 27.0131 14.3671 27.7391H1.875C1.53038 27.7391 1.25 27.4563 1.25 27.1087ZM17.7496 22.2799L20.4011 24.9545L18.1912 27.1837C17.4473 27.9341 16.2597 27.9101 15.5394 27.1837C14.8126 26.4505 14.802 25.2526 15.5394 24.5089L17.7496 22.2799ZM19.6701 27.475C20.6689 26.4675 22.1579 24.9655 23.1583 23.9565H24.5V27.7391H20.625C20.2856 27.7391 19.9563 27.646 19.6701 27.475ZM30.75 25.8478C30.75 26.8907 29.9089 27.7391 28.875 27.7391H25.75V23.9565H28.875C29.9089 23.9565 30.75 24.805 30.75 25.8478ZM20.8432 19.1596C21.5741 18.4224 22.7638 18.422 23.4949 19.1596C24.226 19.8971 24.226 21.097 23.4949 21.8344C23.3432 21.9874 24.1636 21.1601 21.2849 24.0629L18.6336 21.3884L20.8432 19.1596ZM2.5 1.8913C2.5 1.54368 2.78038 1.26087 3.125 1.26087H15.625C15.9696 1.26087 16.25 1.54368 16.25 1.8913V5.04348H15V3.15217C15 2.80398 14.7202 2.52174 14.375 2.52174C14.0298 2.52174 13.75 2.80398 13.75 3.15217V5.04348H12.5V3.15217C12.5 2.80398 12.2202 2.52174 11.875 2.52174C11.5298 2.52174 11.25 2.80398 11.25 3.15217V5.04348H10V3.15217C10 2.80398 9.72019 2.52174 9.375 2.52174C9.02981 2.52174 8.75 2.80398 8.75 3.15217V5.04348H7.5V3.15217C7.5 2.80398 7.22019 2.52174 6.875 2.52174C6.52981 2.52174 6.25 2.80398 6.25 3.15217V5.04348H5V3.15217C5 2.80398 4.72019 2.52174 4.375 2.52174C4.02981 2.52174 3.75 2.80398 3.75 3.15217V5.04348H2.5V1.8913ZM5 6.30435H13.75V7.56522H5V6.30435ZM3.125 8.82609H15.625C16.6589 8.82609 17.5 9.67453 17.5 10.7174V11.3478H12.1875C11.8423 11.3478 11.5625 11.6301 11.5625 11.9783C11.5625 12.3264 11.8423 12.6087 12.1875 12.6087H17.5V20.7484C17.0172 21.2354 15.4432 22.8228 14.6556 23.6173C14.5502 23.7236 14.4536 23.8374 14.3649 23.9565H1.25V12.6087H6.5625C6.90769 12.6087 7.1875 12.3264 7.1875 11.9783C7.1875 11.6301 6.90769 11.3478 6.5625 11.3478H1.25V10.7174C1.25 9.67453 2.09113 8.82609 3.125 8.82609Z"/>
<path d="M5 17.0217V19.5435C5 19.8917 5.27981 20.1739 5.625 20.1739H7.5V22.0652C7.5 22.4134 7.77981 22.6957 8.125 22.6957H10.625C10.9702 22.6957 11.25 22.4134 11.25 22.0652V20.1739H13.125C13.4702 20.1739 13.75 19.8917 13.75 19.5435V17.0217C13.75 16.6735 13.4702 16.3913 13.125 16.3913H11.25V14.5C11.25 14.1518 10.9702 13.8696 10.625 13.8696H8.125C7.77981 13.8696 7.5 14.1518 7.5 14.5V16.3913H5.625C5.27981 16.3913 5 16.6735 5 17.0217ZM6.25 17.6522H8.125C8.47019 17.6522 8.75 17.3699 8.75 17.0217V15.1304H10V17.0217C10 17.3699 10.2798 17.6522 10.625 17.6522H12.5V18.913H10.625C10.2798 18.913 10 19.1953 10 19.5435V21.4348H8.75V19.5435C8.75 19.1953 8.47019 18.913 8.125 18.913H6.25V17.6522Z"/>
<path d="M9.375 12.6087C9.72018 12.6087 10 12.3264 10 11.9783C10 11.6301 9.72018 11.3478 9.375 11.3478C9.02982 11.3478 8.75 11.6301 8.75 11.9783C8.75 12.3264 9.02982 12.6087 9.375 12.6087Z"/>
</mask>
<path d="M1.875 29H16.875C17.5095 29 18.1846 28.7913 18.7451 28.3648C19.2826 28.7732 19.9412 29 20.625 29H28.875C30.5981 29 32 27.5859 32 25.8478C32 24.1097 30.5981 22.6957 28.875 22.6957H24.4074C25.5965 21.4643 25.5874 19.4872 24.3788 18.268C23.1604 17.0391 21.1778 17.0391 19.9593 18.268L18.75 19.4877V10.7174C18.75 8.97928 17.3481 7.56522 15.625 7.56522H15V6.30435H16.875C17.2202 6.30435 17.5 6.0221 17.5 5.67391V1.8913C17.5 0.848439 16.6589 0 15.625 0H3.125C2.09113 0 1.25 0.848439 1.25 1.8913V5.67391C1.25 6.0221 1.52981 6.30435 1.875 6.30435H3.75V7.56522H3.125C1.40188 7.56522 0 8.97928 0 10.7174V27.1087C0 28.1516 0.841125 29 1.875 29ZM1.25 27.1087V25.2168H13.803C13.6276 26.0909 13.8264 27.0131 14.3671 27.7391H1.875C1.53038 27.7391 1.25 27.4563 1.25 27.1087ZM17.7496 22.2799L20.4011 24.9545L18.1912 27.1837C17.4473 27.9341 16.2597 27.9101 15.5394 27.1837C14.8126 26.4505 14.802 25.2526 15.5394 24.5089L17.7496 22.2799ZM19.6701 27.475C20.6689 26.4675 22.1579 24.9655 23.1583 23.9565H24.5V27.7391H20.625C20.2856 27.7391 19.9563 27.646 19.6701 27.475ZM30.75 25.8478C30.75 26.8907 29.9089 27.7391 28.875 27.7391H25.75V23.9565H28.875C29.9089 23.9565 30.75 24.805 30.75 25.8478ZM20.8432 19.1596C21.5741 18.4224 22.7638 18.422 23.4949 19.1596C24.226 19.8971 24.226 21.097 23.4949 21.8344C23.3432 21.9874 24.1636 21.1601 21.2849 24.0629L18.6336 21.3884L20.8432 19.1596ZM2.5 1.8913C2.5 1.54368 2.78038 1.26087 3.125 1.26087H15.625C15.9696 1.26087 16.25 1.54368 16.25 1.8913V5.04348H15V3.15217C15 2.80398 14.7202 2.52174 14.375 2.52174C14.0298 2.52174 13.75 2.80398 13.75 3.15217V5.04348H12.5V3.15217C12.5 2.80398 12.2202 2.52174 11.875 2.52174C11.5298 2.52174 11.25 2.80398 11.25 3.15217V5.04348H10V3.15217C10 2.80398 9.72019 2.52174 9.375 2.52174C9.02981 2.52174 8.75 2.80398 8.75 3.15217V5.04348H7.5V3.15217C7.5 2.80398 7.22019 2.52174 6.875 2.52174C6.52981 2.52174 6.25 2.80398 6.25 3.15217V5.04348H5V3.15217C5 2.80398 4.72019 2.52174 4.375 2.52174C4.02981 2.52174 3.75 2.80398 3.75 3.15217V5.04348H2.5V1.8913ZM5 6.30435H13.75V7.56522H5V6.30435ZM3.125 8.82609H15.625C16.6589 8.82609 17.5 9.67453 17.5 10.7174V11.3478H12.1875C11.8423 11.3478 11.5625 11.6301 11.5625 11.9783C11.5625 12.3264 11.8423 12.6087 12.1875 12.6087H17.5V20.7484C17.0172 21.2354 15.4432 22.8228 14.6556 23.6173C14.5502 23.7236 14.4536 23.8374 14.3649 23.9565H1.25V12.6087H6.5625C6.90769 12.6087 7.1875 12.3264 7.1875 11.9783C7.1875 11.6301 6.90769 11.3478 6.5625 11.3478H1.25V10.7174C1.25 9.67453 2.09113 8.82609 3.125 8.82609Z" fill="white"/>
<path d="M5 17.0217V19.5435C5 19.8917 5.27981 20.1739 5.625 20.1739H7.5V22.0652C7.5 22.4134 7.77981 22.6957 8.125 22.6957H10.625C10.9702 22.6957 11.25 22.4134 11.25 22.0652V20.1739H13.125C13.4702 20.1739 13.75 19.8917 13.75 19.5435V17.0217C13.75 16.6735 13.4702 16.3913 13.125 16.3913H11.25V14.5C11.25 14.1518 10.9702 13.8696 10.625 13.8696H8.125C7.77981 13.8696 7.5 14.1518 7.5 14.5V16.3913H5.625C5.27981 16.3913 5 16.6735 5 17.0217ZM6.25 17.6522H8.125C8.47019 17.6522 8.75 17.3699 8.75 17.0217V15.1304H10V17.0217C10 17.3699 10.2798 17.6522 10.625 17.6522H12.5V18.913H10.625C10.2798 18.913 10 19.1953 10 19.5435V21.4348H8.75V19.5435C8.75 19.1953 8.47019 18.913 8.125 18.913H6.25V17.6522Z" fill="white"/>
<path d="M9.375 12.6087C9.72018 12.6087 10 12.3264 10 11.9783C10 11.6301 9.72018 11.3478 9.375 11.3478C9.02982 11.3478 8.75 11.6301 8.75 11.9783C8.75 12.3264 9.02982 12.6087 9.375 12.6087Z" fill="white"/>
<path d="M1.875 29H16.875C17.5095 29 18.1846 28.7913 18.7451 28.3648C19.2826 28.7732 19.9412 29 20.625 29H28.875C30.5981 29 32 27.5859 32 25.8478C32 24.1097 30.5981 22.6957 28.875 22.6957H24.4074C25.5965 21.4643 25.5874 19.4872 24.3788 18.268C23.1604 17.0391 21.1778 17.0391 19.9593 18.268L18.75 19.4877V10.7174C18.75 8.97928 17.3481 7.56522 15.625 7.56522H15V6.30435H16.875C17.2202 6.30435 17.5 6.0221 17.5 5.67391V1.8913C17.5 0.848439 16.6589 0 15.625 0H3.125C2.09113 0 1.25 0.848439 1.25 1.8913V5.67391C1.25 6.0221 1.52981 6.30435 1.875 6.30435H3.75V7.56522H3.125C1.40188 7.56522 0 8.97928 0 10.7174V27.1087C0 28.1516 0.841125 29 1.875 29ZM1.25 27.1087V25.2168H13.803C13.6276 26.0909 13.8264 27.0131 14.3671 27.7391H1.875C1.53038 27.7391 1.25 27.4563 1.25 27.1087ZM17.7496 22.2799L20.4011 24.9545L18.1912 27.1837C17.4473 27.9341 16.2597 27.9101 15.5394 27.1837C14.8126 26.4505 14.802 25.2526 15.5394 24.5089L17.7496 22.2799ZM19.6701 27.475C20.6689 26.4675 22.1579 24.9655 23.1583 23.9565H24.5V27.7391H20.625C20.2856 27.7391 19.9563 27.646 19.6701 27.475ZM30.75 25.8478C30.75 26.8907 29.9089 27.7391 28.875 27.7391H25.75V23.9565H28.875C29.9089 23.9565 30.75 24.805 30.75 25.8478ZM20.8432 19.1596C21.5741 18.4224 22.7638 18.422 23.4949 19.1596C24.226 19.8971 24.226 21.097 23.4949 21.8344C23.3432 21.9874 24.1636 21.1601 21.2849 24.0629L18.6336 21.3884L20.8432 19.1596ZM2.5 1.8913C2.5 1.54368 2.78038 1.26087 3.125 1.26087H15.625C15.9696 1.26087 16.25 1.54368 16.25 1.8913V5.04348H15V3.15217C15 2.80398 14.7202 2.52174 14.375 2.52174C14.0298 2.52174 13.75 2.80398 13.75 3.15217V5.04348H12.5V3.15217C12.5 2.80398 12.2202 2.52174 11.875 2.52174C11.5298 2.52174 11.25 2.80398 11.25 3.15217V5.04348H10V3.15217C10 2.80398 9.72019 2.52174 9.375 2.52174C9.02981 2.52174 8.75 2.80398 8.75 3.15217V5.04348H7.5V3.15217C7.5 2.80398 7.22019 2.52174 6.875 2.52174C6.52981 2.52174 6.25 2.80398 6.25 3.15217V5.04348H5V3.15217C5 2.80398 4.72019 2.52174 4.375 2.52174C4.02981 2.52174 3.75 2.80398 3.75 3.15217V5.04348H2.5V1.8913ZM5 6.30435H13.75V7.56522H5V6.30435ZM3.125 8.82609H15.625C16.6589 8.82609 17.5 9.67453 17.5 10.7174V11.3478H12.1875C11.8423 11.3478 11.5625 11.6301 11.5625 11.9783C11.5625 12.3264 11.8423 12.6087 12.1875 12.6087H17.5V20.7484C17.0172 21.2354 15.4432 22.8228 14.6556 23.6173C14.5502 23.7236 14.4536 23.8374 14.3649 23.9565H1.25V12.6087H6.5625C6.90769 12.6087 7.1875 12.3264 7.1875 11.9783C7.1875 11.6301 6.90769 11.3478 6.5625 11.3478H1.25V10.7174C1.25 9.67453 2.09113 8.82609 3.125 8.82609Z" stroke="#303030" stroke-width="0.6" mask="url(#path-1-inside-1)"/>
<path d="M5 17.0217V19.5435C5 19.8917 5.27981 20.1739 5.625 20.1739H7.5V22.0652C7.5 22.4134 7.77981 22.6957 8.125 22.6957H10.625C10.9702 22.6957 11.25 22.4134 11.25 22.0652V20.1739H13.125C13.4702 20.1739 13.75 19.8917 13.75 19.5435V17.0217C13.75 16.6735 13.4702 16.3913 13.125 16.3913H11.25V14.5C11.25 14.1518 10.9702 13.8696 10.625 13.8696H8.125C7.77981 13.8696 7.5 14.1518 7.5 14.5V16.3913H5.625C5.27981 16.3913 5 16.6735 5 17.0217ZM6.25 17.6522H8.125C8.47019 17.6522 8.75 17.3699 8.75 17.0217V15.1304H10V17.0217C10 17.3699 10.2798 17.6522 10.625 17.6522H12.5V18.913H10.625C10.2798 18.913 10 19.1953 10 19.5435V21.4348H8.75V19.5435C8.75 19.1953 8.47019 18.913 8.125 18.913H6.25V17.6522Z" stroke="#303030" stroke-width="0.6" mask="url(#path-1-inside-1)"/>
<path d="M9.375 12.6087C9.72018 12.6087 10 12.3264 10 11.9783C10 11.6301 9.72018 11.3478 9.375 11.3478C9.02982 11.3478 8.75 11.6301 8.75 11.9783C8.75 12.3264 9.02982 12.6087 9.375 12.6087Z" stroke="#303030" stroke-width="0.6" mask="url(#path-1-inside-1)"/>
</svg>
