<svg width="319" height="91" viewBox="0 0 319 91" fill="none" xmlns="http://www.w3.org/2000/svg">
<path d="M24.7441 46.5977C24.7441 43.914 25.2293 41.4744 26.1997 39.0347C27.17 36.595 28.6255 34.6433 30.3236 32.9355C32.0217 31.2277 34.205 29.7639 36.6308 28.788C39.0567 27.8122 41.7251 27.3242 44.6362 27.3242C47.7898 27.3242 50.4582 27.8122 52.8841 28.788C55.3099 29.7639 57.4932 30.9837 59.6765 32.9355L53.6118 40.2545C52.1563 39.0347 50.9434 38.3028 49.4879 37.5709C47.7898 36.839 46.0917 36.595 44.151 36.595C42.4529 36.595 40.5122 37.3269 39.0567 38.3028C36.3883 40.4985 35.1753 43.1821 35.1753 46.5977C35.1753 49.5253 36.1457 52.2089 38.0863 54.1607C40.027 56.1124 42.4529 57.0883 45.3639 57.0883C47.7898 57.0883 49.7305 56.6004 51.186 55.3805V50.7451H43.9084V43.1821H60.8894V60.0159C56.2803 63.9194 50.9434 65.6272 44.8787 65.6272C40.9974 65.6272 37.6012 64.8953 34.6902 63.1875C31.5365 61.4797 29.1107 59.284 27.4126 56.3564C25.4719 53.6727 24.7441 50.2572 24.7441 46.5977Z" fill="#E62379"/>
<path d="M66.2266 49.0377V28.0565H76.6577V48.7937C76.6577 51.4774 77.1429 53.4291 78.3558 54.649C79.5688 55.8688 81.2669 56.6007 83.4501 56.6007C85.6334 56.6007 87.3315 55.8688 88.5444 54.649C89.7574 53.4291 90.2425 51.4774 90.2425 48.7937V27.8125H100.674V48.7937C100.674 51.7213 100.189 54.405 99.4608 56.6007C98.733 58.7964 97.5201 60.5042 96.0646 61.968C94.6091 63.4318 92.6684 64.4077 90.7277 65.1396C88.5444 65.8715 86.1186 66.1154 83.6927 66.1154C78.3558 66.1154 73.9893 64.6516 71.0783 61.968C67.6821 59.0404 66.2266 54.649 66.2266 49.0377Z" fill="#E62379"/>
<path d="M101.4 65.3836L117.168 27.8125H127.114L142.883 65.3836H131.966L129.055 58.5525H114.743L112.074 65.1396H101.4V65.3836ZM117.896 50.7455H126.144L122.02 40.2549L117.896 50.7455Z" fill="#E62379"/>
<path d="M135.605 28.0566H147.007L155.255 51.7215L163.745 28.0566H175.147L160.107 65.6277H150.403L135.605 28.0566Z" fill="#E62379"/>
<path d="M190.187 28.0566H179.998V65.3837H190.187V28.0566Z" fill="#E62379"/>
<path d="M195.039 37.0834V28.0566H227.546V37.0834H216.387V65.3837H205.955V37.0834H195.039Z" fill="#E62379"/>
<path d="M223.18 65.3836L238.948 27.8125H248.894L264.662 65.3836H253.745L251.077 58.7964H236.764L234.096 65.3836H223.18ZM239.676 50.7455H247.923L243.799 40.2549L239.676 50.7455Z" fill="#E62379"/>
<path d="M268.299 65.3837V28.0566H278.487V56.1129H296.439V65.3837H268.299Z" fill="#E62379"/>
</svg>
