<svg width="1875" height="382" viewBox="0 0 1875 382" fill="none" xmlns="http://www.w3.org/2000/svg">
<g filter="url(#filter0_d)">
<path d="M66.623 167.901C66.623 150.649 69.7333 134.965 75.9539 119.281C82.1744 103.598 91.5052 91.0509 102.391 80.0724C113.277 69.0938 127.273 59.6836 142.825 53.4102C158.376 47.1367 175.482 44 194.144 44C214.361 44 231.467 47.1367 247.018 53.4102C262.57 59.6836 276.566 67.5255 290.562 80.0724L251.684 127.123C242.353 119.281 234.577 114.576 225.247 109.871C214.361 105.166 203.475 103.598 191.034 103.598C180.148 103.598 167.707 108.303 158.376 114.576C141.269 128.692 133.494 145.944 133.494 167.901C133.494 186.721 139.714 203.973 152.155 216.52C164.596 229.067 180.148 235.34 198.809 235.34C214.361 235.34 226.802 232.204 236.133 224.362V194.563H189.479V145.944H298.338V254.161C268.79 279.255 234.577 290.233 195.699 290.233C170.817 290.233 149.045 285.528 130.384 274.55C110.167 263.571 94.6154 249.456 83.7295 230.635C71.2885 213.383 66.623 191.426 66.623 167.901Z" fill="#E62379"/>
<path d="M332.551 183.584V48.7048H399.421V182.016C399.421 199.268 402.532 211.815 410.307 219.657C418.083 227.498 428.969 232.204 442.965 232.204C456.961 232.204 467.847 227.498 475.623 219.657C483.399 211.815 486.509 199.268 486.509 182.016V47.1365H553.38V182.016C553.38 200.836 550.269 218.088 545.604 232.204C540.939 246.319 533.163 257.297 523.832 266.708C514.501 276.118 502.06 282.391 489.619 287.096C475.623 291.801 460.072 293.37 444.52 293.37C410.307 293.37 382.315 283.96 363.653 266.708C341.882 247.887 332.551 219.657 332.551 183.584Z" fill="#E62379"/>
<path d="M558.045 288.665L659.129 47.1365H722.889L823.973 288.665H753.992L735.33 244.751H643.578L626.471 287.096H558.045V288.665ZM663.794 194.563H716.669L690.232 127.123L663.794 194.563Z" fill="#E62379"/>
<path d="M777.319 48.7045H850.41L903.285 200.836L957.715 48.7045H1030.81L934.388 290.233H872.182L777.319 48.7045Z" fill="#E62379"/>
<path d="M1127.22 48.7045H1061.91V288.664H1127.22V48.7045Z" fill="#E62379"/>
<path d="M1158.33 106.734V48.7045H1366.71V106.734H1295.18V288.664H1228.31V106.734H1158.33Z" fill="#E62379"/>
<path d="M1338.72 288.665L1439.81 47.1365H1503.57L1604.65 288.665H1534.67L1517.56 246.319H1425.81L1408.7 288.665H1338.72ZM1444.47 194.563H1497.35L1470.91 127.123L1444.47 194.563Z" fill="#E62379"/>
<path d="M1627.98 288.664V48.7045H1693.29V229.066H1808.37V288.664H1627.98Z" fill="#E62379"/>
<path d="M289.87 80.1247L251.619 126.417C242.424 118.738 234.7 114.078 225.472 109.425L225.459 109.418L225.445 109.412C214.478 104.672 203.52 103.098 191.034 103.098C180.023 103.098 167.486 107.849 158.097 114.161L158.077 114.175L158.058 114.191C140.832 128.404 132.994 145.8 132.994 167.901C132.994 186.831 139.252 204.217 151.8 216.872C164.341 229.52 180.023 235.84 198.809 235.84C214.421 235.84 226.998 232.692 236.454 224.745L236.633 224.595V224.362V194.563V194.063H236.133H189.979V146.444H297.838V253.929C268.432 278.831 234.397 289.733 195.699 289.733C170.88 289.733 149.202 285.04 130.637 274.119L130.63 274.114L130.622 274.11C110.473 263.168 94.9951 249.113 84.1623 230.385L84.1498 230.363L84.1351 230.343C71.7779 213.207 67.123 191.368 67.123 167.901C67.123 150.713 70.2208 135.092 76.4186 119.466C82.6083 103.86 91.8949 91.3681 102.746 80.4244C113.584 69.4947 127.523 60.1222 143.012 53.8739C158.497 47.627 175.539 44.5 194.144 44.5C214.307 44.5 231.348 47.6279 246.831 53.8739C262.207 60.0766 276.045 67.8102 289.87 80.1247ZM363.993 266.34L363.987 266.335L363.98 266.329C342.359 247.639 333.051 219.576 333.051 183.584V49.2048H398.921V182.016C398.921 199.302 402.032 212.021 409.952 220.009C417.831 227.954 428.849 232.704 442.965 232.704C457.082 232.704 468.1 227.954 475.978 220.009C483.898 212.021 487.009 199.302 487.009 182.016V47.6365H552.88V182.016C552.88 200.783 549.778 217.982 545.129 232.047C540.493 246.073 532.767 256.987 523.477 266.355C514.222 275.689 501.863 281.931 489.451 286.625C475.528 291.304 460.039 292.87 444.52 292.87C410.393 292.87 382.536 283.483 363.993 266.34ZM626.134 286.596H559.453L659.462 47.6365H722.557L823.222 288.165H754.323L735.791 244.555L735.661 244.251H735.33H643.578H643.24L643.114 244.563L626.134 286.596ZM663.329 194.38L663.061 195.063H663.794H716.669H717.402L717.134 194.38L690.697 126.941L690.232 125.753L689.766 126.941L663.329 194.38ZM903.756 201.004L958.067 49.2045H1030.07L934.049 289.733H872.523L778.053 49.2045H850.055L902.813 201L903.278 202.339L903.756 201.004ZM1228.31 106.234H1158.83V49.2045H1366.21V106.234H1295.18H1294.68V106.734V288.164H1228.81V106.734V106.234H1228.31ZM1503.23 47.6365L1603.9 288.165H1535.01L1518.03 246.132L1517.9 245.819H1517.56H1425.81H1425.47L1425.35 246.132L1408.37 288.165H1339.47L1440.14 47.6365H1503.23ZM1444.01 194.38L1443.74 195.063H1444.47H1497.35H1498.08L1497.81 194.38L1471.37 126.941L1470.91 125.753L1470.44 126.941L1444.01 194.38ZM1693.29 229.566H1807.87V288.164H1628.48V49.2045H1692.79V229.066V229.566H1693.29ZM1062.41 288.164V49.2045H1126.72V288.164H1062.41Z" stroke="#E62379"/>
</g>
<defs>
<filter id="filter0_d" x="0.623047" y="0" width="1873.75" height="381.37" filterUnits="userSpaceOnUse" color-interpolation-filters="sRGB">
<feFlood flood-opacity="0" result="BackgroundImageFix"/>
<feColorMatrix in="SourceAlpha" type="matrix" values="0 0 0 0 0 0 0 0 0 0 0 0 0 0 0 0 0 0 127 0"/>
<feOffset dy="22"/>
<feGaussianBlur stdDeviation="33"/>
<feColorMatrix type="matrix" values="0 0 0 0 0 0 0 0 0 0 0 0 0 0 0 0 0 0 0.55 0"/>
<feBlend mode="normal" in2="BackgroundImageFix" result="effect1_dropShadow"/>
<feBlend mode="normal" in="SourceGraphic" in2="effect1_dropShadow" result="shape"/>
</filter>
</defs>
</svg>
