<svg width="116" height="84" viewBox="0 0 116 84" fill="none" xmlns="http://www.w3.org/2000/svg">
<path d="M60.4721 61.8545C60.4721 76.7455 69.6 84 80.6295 84C92.4197 84 103.449 74.0727 103.449 61.4727C103.449 51.1636 95.8426 44.2909 87.4754 44.2909C86.3344 44.2909 84.8131 44.2909 84.0525 44.6727C88.6164 32.0727 102.308 19.4727 116 12.6L104.59 0C81.0098 11.8364 60.4721 37.8 60.4721 61.8545ZM0 61.8545C0 76.7455 9.12787 84 20.1574 84C31.9475 84 42.9771 74.0727 42.9771 61.4727C42.9771 51.1636 35.3705 44.2909 26.6229 44.2909C25.8623 44.2909 23.9607 44.2909 23.5803 44.6727C27.7639 32.0727 41.8361 19.4727 55.5279 12.6L44.118 0C20.5377 11.8364 0 37.8 0 61.8545Z" fill="#444444"/>
</svg>
