<svg width="26" height="26" viewBox="0 0 26 26" fill="none" xmlns="http://www.w3.org/2000/svg">
<path d="M1.17246 19.9319L1.17225 19.9321C1.0701 20.0174 0.94181 20.0625 0.8125 20.0625C0.732235 20.0625 0.649598 20.0446 0.573498 20.0095C0.376246 19.9175 0.25 19.7187 0.25 19.5V3.25C0.25 1.5957 1.5957 0.25 3.25 0.25H17.875C19.5293 0.25 20.875 1.5957 20.875 3.25V13C20.875 14.6543 19.5293 16 17.875 16H5.98163H5.89112L5.82159 16.0579L1.17246 19.9319ZM1.375 17.7661V18.2999L1.78506 17.9582L5.32755 15.0056C5.429 14.921 5.55603 14.875 5.6875 14.875H17.875C18.9102 14.875 19.75 14.0333 19.75 13V3.25C19.75 2.21672 18.9102 1.375 17.875 1.375H3.25C2.21477 1.375 1.375 2.21672 1.375 3.25V17.7661ZM24.2189 23.6911L24.625 24.0159V23.4959V9.75C24.625 8.71672 23.7852 7.875 22.75 7.875C22.4396 7.875 22.1875 7.62293 22.1875 7.3125C22.1875 7.00207 22.4396 6.75 22.75 6.75C24.4043 6.75 25.75 8.0957 25.75 9.75V25.1875C25.75 25.4028 25.6269 25.5997 25.4322 25.6948C25.3524 25.7323 25.269 25.75 25.1875 25.75C25.0625 25.75 24.9373 25.7083 24.8345 25.6272C24.8343 25.6271 24.8342 25.6269 24.834 25.6268L20.9952 22.5548L20.9267 22.5H20.839H9.75C8.0957 22.5 6.75 21.1543 6.75 19.5V18.6875C6.75 18.3771 7.00207 18.125 7.3125 18.125C7.62293 18.125 7.875 18.3771 7.875 18.6875V19.5C7.875 20.5333 8.71477 21.375 9.75 21.375H21.125C21.2519 21.375 21.3774 21.4191 21.4763 21.4977C21.4763 21.4977 21.4763 21.4978 21.4764 21.4978L24.2189 23.6911ZM5.6875 5.125H15.4375C15.7479 5.125 16 5.37707 16 5.6875C16 5.99793 15.7479 6.25 15.4375 6.25H5.6875C5.37707 6.25 5.125 5.99793 5.125 5.6875C5.125 5.37707 5.37707 5.125 5.6875 5.125ZM5.6875 8.375H12.1875C12.4979 8.375 12.75 8.62707 12.75 8.9375C12.75 9.24793 12.4979 9.5 12.1875 9.5H5.6875C5.37707 9.5 5.125 9.24793 5.125 8.9375C5.125 8.62707 5.37707 8.375 5.6875 8.375Z" fill="white" stroke="#282828" stroke-width="0.5"/>
</svg>
